<svg xmlns="http://www.w3.org/2000/svg" xmlns:xlink="http://www.w3.org/1999/xlink" viewBox="0 0 400 300"><defs><linearGradient id="linear-gradient" x1="98.4" y1="214.02" x2="123.11" y2="202.01" gradientUnits="userSpaceOnUse"><stop offset="0" stop-color="#fff"/><stop offset="1" stop-color="#f7931e"/></linearGradient><linearGradient id="linear-gradient-2" x1="279.8" y1="220.63" x2="300.04" y2="186.1" xlink:href="#linear-gradient"/><linearGradient id="linear-gradient-3" x1="181.4" y1="272.3" x2="194.18" y2="250.51" xlink:href="#linear-gradient"/></defs><title>OK</title><g style="isolation:isolate"><g id="Layer_2" data-name="Layer 2"><path d="M62.06,206.88l125.53,72.47a10.52,10.52,0,0,0,10.46,0l144.82-82.3a5.87,5.87,0,0,0,0-10.18l-129-74.6a4.07,4.07,0,0,0-4.11,0L62,199.86A4.07,4.07,0,0,0,62.06,206.88Z" fill="#ffd348"/><polygon points="182.26 164.27 76.54 211.04 103.86 224.97 199.7 168.59 182.26 164.27" fill="url(#linear-gradient)" style="mix-blend-mode:multiply"/><path d="M122.62,48.86l23.52-13.57a3.56,3.56,0,0,1,5.34,3.08V53.63a3.56,3.56,0,0,1-1.75,3.07L126.21,70.55a3.56,3.56,0,0,1-5.37-3.07V51.94A3.56,3.56,0,0,1,122.62,48.86Z" fill="#ed1c24"/><path d="M134,47.19c0,2.61,0,10,0,12.93a.55.55,0,0,0,.9.42l9.58-7.94a.55.55,0,0,0-.1-.91l-9.56-5A.55.55,0,0,0,134,47.19Z" fill="#fff"/><path d="M106.53,117.22v96.31a5.91,5.91,0,0,0,8.92,5.09l138.45-81.71a3.18,3.18,0,0,0,1.57-2.74V39.88a5.35,5.35,0,0,0-8-4.65L108.14,114.46A3.18,3.18,0,0,0,106.53,117.22Zm135.06,11.32L122.3,197.28a3.18,3.18,0,0,1-4.77-2.76V122a3.18,3.18,0,0,1,1.6-2.76L238.42,51a3.18,3.18,0,0,1,4.76,2.76v72.06A3.18,3.18,0,0,1,241.59,128.54Z" fill="#68e1fd"/><path d="M237.73,36.61,261.24,23a3.56,3.56,0,0,1,5.34,3.08V41.39a3.56,3.56,0,0,1-1.75,3.07L241.31,58.31a3.56,3.56,0,0,1-5.37-3.07V39.69A3.56,3.56,0,0,1,237.73,36.61Z" fill="#f24c4c"/><polyline points="249.48 52.7 253.74 57.82 257.22 48.03" fill="#f24c4c"/><path d="M251.37,39.55s-2.88-4.66-5.72-1.13c-1.63,2,1.33,8.17,5.57,8.81,3.84.58,9.24-12.58,3.86-12.72C251.59,34.41,251.37,39.55,251.37,39.55Z" fill="#fff"/><path d="M118.46,120.93c-4.61,1.75-1,88.53-1,88.53L214,150.31l35.47-32.38-6.57-71.29Z" fill="#4f4e6e"/><path d="M169.28,141.88v-27c0-3.32,2.26-6.46,5.54-6.92a6.49,6.49,0,0,1,7.43,6.42v43A108,108,0,0,1,169.28,141.88Z" opacity="0.27"/><path d="M242.91,110.66s-65.5-4.16-69.68-2.23-5.88,8.87-4.29,18.53,32.82,48.58,32.82,48.58" fill="#68e1fd"/><path d="M198,130.95c-9.51-5.82-19.42-10.93-29-16.65a9.57,9.57,0,0,1,3.08-5.3c18.23,8.93,36.2,18.37,54.34,27.48l-5.48,8.64C213.24,140.49,205.65,135.65,198,130.95Z" fill="#fff" opacity="0.51"/><path d="M200.33,139.13c-10.59-6.73-21.61-12.84-32-19.93,0-.43,0-.87.05-1.29,9.21,5.45,18.72,10.39,27.85,16,7.64,4.68,15.18,9.5,22.85,14.11l-1.35,2.13C211.92,146.51,206.13,142.81,200.33,139.13Z" fill="#fff" opacity="0.51"/><path d="M263.14,131.67c-.19-.68-6.87-31.14-37.12-18.18-27.34,11.72-28.17,46.57-26.32,55.1,1.51,6.94,8.59,16.39,22.29,19.81" fill="#8c0000"/><ellipse cx="234.52" cy="151.37" rx="39.23" ry="27.91" transform="translate(2.4 306.4) rotate(-66.58)" fill="#ce4242"/><path d="M205.14,153.12l29.64,7.76,6.49-13.77-26.82-16.7S206.77,142.15,205.14,153.12Z" fill="#fff"/><ellipse cx="237.61" cy="153.8" rx="7.64" ry="6.14" transform="translate(-7.16 295.94) rotate(-63.06)" fill="#f7d600"/><path d="M317.6,117.86c-.39.37-.77.74-1.15,1.12a1.78,1.78,0,0,0,0-1.29.79.79,0,0,0-1.43-.2q-1.29,1.95-2.61,3.88l-.09-.31a4.94,4.94,0,0,0-.79-1.87c-.84-.87-1.45.22-1.36,1.24.11,1.37.65,2.59.17,4a5.59,5.59,0,0,1-1.45,1.84q-.85.88-1.73,1.72a.78.78,0,0,0,.73,1.3.76.76,0,0,0,.71,1.11c0,.66.78,1.26,1.28.62a30.28,30.28,0,0,1,4.12-4.29q2.42-1.56,4.75-3.26c.79-.58.07-1.93-.77-1.35l-.12.08,1.35-1.11c.67-.55-.24-1.76-.94-1.23l-.17.13h0l0,0-.46.35.58-.64a1.82,1.82,0,0,0,.67-1.31A.79.79,0,0,0,317.6,117.86Z" fill="#f9c882"/><path d="M312.87,122.07a.17.17,0,0,0-.24.25,2.7,2.7,0,0,1,.65,2.81c-.07.21.26.3.33.09A3.05,3.05,0,0,0,312.87,122.07Z" fill="#42210b"/><path d="M316.42,118.7q-1.39,1.37-2.67,2.85c-.14.17.1.41.25.24q1.28-1.48,2.67-2.85C316.82,118.79,316.58,118.54,316.42,118.7Z" fill="#42210b"/><path d="M318.05,119.8l-3.15,2.5c-.17.14.07.38.25.24l3.15-2.5C318.47,119.91,318.22,119.66,318.05,119.8Z" fill="#42210b"/><path d="M318.31,121.69q-1.35.88-2.72,1.72c-.19.12,0,.42.17.3q1.37-.84,2.72-1.72C318.66,121.87,318.49,121.57,318.31,121.69Z" fill="#42210b"/><path d="M253.84,123.07l1.55.41a1.78,1.78,0,0,1-.68-1.09.79.79,0,0,1,1.15-.88q2.09,1.05,4.19,2.07l-.08-.31a4.94,4.94,0,0,1-.25-2c.3-1.17,1.36-.53,1.8.4.59,1.24.72,2.57,1.83,3.56a5.59,5.59,0,0,0,2.17.88c.78.23,1.57.44,2.36.64a.78.78,0,0,1,0,1.5.76.76,0,0,1-.07,1.32c.35.56-.06,1.48-.81,1.18a30.28,30.28,0,0,0-5.7-1.69q-2.88-.16-5.74-.48c-1-.11-1-1.64,0-1.56h.15L254,126.7c-.86-.15-.67-1.65.21-1.53l.21,0h0l.57.08-.82-.27c-.51-.17-1-.29-1.23-.8A.79.79,0,0,1,253.84,123.07Z" fill="#f9c882"/><path d="M260,124.38a.17.17,0,0,1,.33.09,2.7,2.7,0,0,0,.83,2.76c.17.15-.08.39-.24.24A3.05,3.05,0,0,1,260,124.38Z" fill="#42210b"/><path d="M255.28,123.21q1.89.5,3.73,1.15c.21.07.12.41-.09.33q-1.84-.65-3.73-1.15A.17.17,0,0,1,255.28,123.21Z" fill="#42210b"/><path d="M254.41,125l4,.61c.22,0,.13.37-.09.33l-4-.61C254.1,125.28,254.19,124.95,254.41,125Z" fill="#42210b"/><path d="M255.12,126.75q1.61.1,3.21.15c.22,0,.22.35,0,.35q-1.61,0-3.21-.15C254.9,127.08,254.9,126.74,255.12,126.75Z" fill="#42210b"/><path d="M304.16,189.76s.1,5.08.7,5.88,5.93,3.62,6.23,4.92-.65,3.15-3.19,2.45-8.65-4.66-8.65-4.66v-11" fill="#42210b"/><path d="M283.76,195.54l-.65,5.51s2.34,8.5,1.4,9.53-4.3,2.15-5.61,0,.56-10.09.56-10.09l.09-6" fill="#42210b"/><path d="M296,137.2s6.61,26.81,6.9,30.95,2.27,26.37,2.27,26.37-5.81,3.17-10,1.76l-3.78-27.84L287.67,142S294.44,135.29,296,137.2Z" fill="#174399"/><path d="M283.34,143.53c-4.66,19.78-5.61,38.8-8,56.1a10.16,10.16,0,0,0,12.32-.83c1.51-17.63,5.65-38.44,6.21-56.12Z" fill="#174399"/><path d="M264.81,122.57c4.25,1.62,9.29,3.08,12.75,2.63A60.26,60.26,0,0,0,290.3,122c.56-.19,6.6-2.5,8.83-.5s1.64,8.48,1.64,8.48l8.16-7.06c3,1.09,4.22,4.21,4.51,7.32l-.31.32q-.88,1-1.78,2c-2.68,3-5.74,6.47-9.67,7.78a7,7,0,0,1-4.71-.29c-1.17-.44-2.88-1.85-4.15-1.39-.33.12-.64.36-1,.32-.94-.11-2.2-1.61-3.08-2.07-2.44-1.27-5.31-1.46-8-1.6a58.55,58.55,0,0,1-8.77-1c-.85-.17-9.87-2.48-10.07-2.1A31.4,31.4,0,0,0,264.81,122.57Z" fill="#8141c4"/><path d="M296.59,116.51c.6,2.83.1,6.74-2.93,7.19-3.9.58-4.87-2.07-4.66-5.34.16-2.59,1.52-6.64,5-5.48a3.6,3.6,0,0,1,2,1.8A7.25,7.25,0,0,1,296.59,116.51Z" fill="#f9c882"/><path d="M296.81,117.14a4.49,4.49,0,0,0,2.42-4.33c-.16-1.73-1.85-4-3.8-3.12-1.33.56-1,.6-1,.6a2.74,2.74,0,0,0-2.57-.92c-1.85.16-2.17,1.29-2.17,1.29s-2.1.7-2.65,2c-.63,1.53.8,6.09,1.49,7.36s1.08-1.32,1.33-2.36a2.59,2.59,0,0,1,1.55-1.9c1.14-.31,1.7.7,2.6,1.13A3.24,3.24,0,0,0,296.81,117.14Z" fill="#42210b"/><path d="M289.45,144.64a16.44,16.44,0,0,1-6.11-1.12l-.41-13,15.62,7.32s-.59,3.14-1.25,6A22.35,22.35,0,0,1,289.45,144.64Z" fill="#8141c4"/><path d="M297.39,143.56a67.28,67.28,0,0,0,1.76-11.28c0-.47.77-.47.74,0a68.47,68.47,0,0,1-1.79,11.47C298,144.22,297.28,144,297.39,143.56Z" fill="#42210b"/><ellipse cx="296.43" cy="118.93" rx="1.57" ry="1.81" fill="none" stroke="#42210b" stroke-miterlimit="10" stroke-width="0.5"/><ellipse cx="292.31" cy="119.36" rx="1.57" ry="1.81" fill="none" stroke="#42210b" stroke-miterlimit="10" stroke-width="0.5"/><line x1="294.86" y1="119.24" x2="293.88" y2="119.36" fill="none" stroke="#42210b" stroke-miterlimit="10" stroke-width="0.5"/><line x1="290.74" y1="119.36" x2="288.83" y2="117.82" fill="none" stroke="#42210b" stroke-miterlimit="10" stroke-width="0.5"/><polygon points="302.58 196.31 262.66 215.61 274.66 222.62 311.17 201.36 302.58 196.31" fill="url(#linear-gradient-2)" style="mix-blend-mode:multiply"/><polygon points="189.95 253.53 167.12 267.09 181.79 275.57 204.1 263.17 189.95 253.53" fill="url(#linear-gradient-3)" style="mix-blend-mode:multiply"/><ellipse cx="192" cy="255.67" rx="16.13" ry="11.36" fill="#68e1fd"/><ellipse cx="192.01" cy="248.96" rx="12.08" ry="4.95" fill="#974c26"/><path d="M192.81,249.08c1-1.33,1.9-2.73,2.9-4.3,1.28-2,2.48-4.05,3.57-6.16a40.7,40.7,0,0,0,2.61-5.84,48.74,48.74,0,0,0,1.91-6.69c.12-.6.23-1.2.33-1.8,0-.28.05-.25.05-.21s0-.19,0-.52c.11-1.22.19-2.44.2-3.67a30.84,30.84,0,0,0-2.4-12.35,53.25,53.25,0,0,0-8.62,21.09q-.13.68-.24,1.36s-.12.83-.17,1.16l-.13,1.14q-.09.86-.16,1.73c-.18,2.22-.26,4.46-.25,6.69C192.46,243.51,192.59,246.3,192.81,249.08ZM198,215.74q.44-.5.9-1h0a2,2,0,0,0-.06.87A2.77,2.77,0,0,0,198,215.74Z" fill="#999a1c"/><path d="M193.12,249.28c.08-1.63.12-3.33.12-5.18,0-2.37-.11-4.75-.33-7.11a40.7,40.7,0,0,0-1-6.32,48.74,48.74,0,0,0-2-6.66c-.22-.57-.45-1.13-.69-1.69-.11-.26-.09-.24-.07-.2l-.25-.46c-.57-1.08-1.16-2.16-1.81-3.19a30.84,30.84,0,0,0-8.69-9.09,53.25,53.25,0,0,0,4.14,22.4q.26.64.53,1.27l.48,1.07.51,1q.39.78.8,1.54c1.05,2,2.19,3.89,3.4,5.76C189.81,244.79,191.43,247.06,193.12,249.28Zm-13.7-30.82q.1-.66.24-1.31h0a2,2,0,0,0,.42.76A2.77,2.77,0,0,0,179.42,218.46Z" fill="#999a1c"/><path d="M193.2,250.14c-.48-.91-1-1.84-1.61-2.84-.77-1.28-1.59-2.53-2.47-3.73a25.6,25.6,0,0,0-2.56-3.1,30.65,30.65,0,0,0-3.24-2.95l-.92-.69c-.14-.1-.12-.1-.1-.09l-.28-.17c-.66-.4-1.32-.79-2-1.14a19.39,19.39,0,0,0-7.63-2.1,33.49,33.49,0,0,0,9.47,10.75l.7.51.6.42.61.39.93.57q1.81,1.08,3.7,2C190,248.78,191.57,249.48,193.2,250.14Zm-17.35-12.21q-.16-.39-.29-.78h0a1.26,1.26,0,0,0,.47.27A1.74,1.74,0,0,0,175.85,237.92Z" fill="#999a1c"/><path d="M192.81,249.08c1-1.33,1.9-2.73,2.9-4.3,1.28-2,2.48-4.05,3.57-6.16a40.7,40.7,0,0,0,2.61-5.84,48.74,48.74,0,0,0,1.91-6.69c.12-.6.23-1.2.33-1.8,0-.28.05-.25.05-.21s0-.19,0-.52c.11-1.22.19-2.44.2-3.67a30.84,30.84,0,0,0-2.4-12.35,53.25,53.25,0,0,0-8.62,21.09q-.13.68-.24,1.36s-.12.83-.17,1.16l-.13,1.14q-.09.86-.16,1.73c-.18,2.22-.26,4.46-.25,6.69C192.46,243.51,192.59,246.3,192.81,249.08ZM198,215.74q.44-.5.9-1h0a2,2,0,0,0-.06.87A2.77,2.77,0,0,0,198,215.74Z" fill="#999a1c"/><path d="M193.12,249.28c.08-1.63.12-3.33.12-5.18,0-2.37-.11-4.75-.33-7.11a40.7,40.7,0,0,0-1-6.32,48.74,48.74,0,0,0-2-6.66c-.22-.57-.45-1.13-.69-1.69-.11-.26-.09-.24-.07-.2l-.25-.46c-.57-1.08-1.16-2.16-1.81-3.19a30.84,30.84,0,0,0-8.69-9.09,53.25,53.25,0,0,0,4.14,22.4q.26.64.53,1.27l.48,1.07.51,1q.39.78.8,1.54c1.05,2,2.19,3.89,3.4,5.76C189.81,244.79,191.43,247.06,193.12,249.28Zm-13.7-30.82q.1-.66.24-1.31h0a2,2,0,0,0,.42.76A2.77,2.77,0,0,0,179.42,218.46Z" fill="#999a1c"/><path d="M193.2,250.14c-.48-.91-1-1.84-1.61-2.84-.77-1.28-1.59-2.53-2.47-3.73a25.6,25.6,0,0,0-2.56-3.1,30.65,30.65,0,0,0-3.24-2.95l-.92-.69c-.14-.1-.12-.1-.1-.09l-.28-.17c-.66-.4-1.32-.79-2-1.14a19.39,19.39,0,0,0-7.63-2.1,33.49,33.49,0,0,0,9.47,10.75l.7.51.6.42.61.39.93.57q1.81,1.08,3.7,2C190,248.78,191.57,249.48,193.2,250.14Zm-17.35-12.21q-.16-.39-.29-.78h0a1.26,1.26,0,0,0,.47.27A1.74,1.74,0,0,0,175.85,237.92Z" fill="#999a1c"/><path d="M85,110.17v43.12a2.41,2.41,0,0,0,3.61,2.09l60-34.53a2.41,2.41,0,0,0,1.21-2.09V75.07A2.41,2.41,0,0,0,146.28,73L86.71,107.27A3.35,3.35,0,0,0,85,110.17Z" fill="#edb033"/><polygon points="93.5 109.61 93.5 147.49 143.42 118.78 143.42 80.88 93.5 109.61" fill="#fff"/><path d="M93.5,147.49l12-26.44a5.42,5.42,0,0,1,7.14-2.72l5.87,2.61,11.44-19.27a3.73,3.73,0,0,1,5.46-1.08l8.06,6.07v12.13Z" fill="#68e1fd"/></g></g></svg>