<svg xmlns="http://www.w3.org/2000/svg" xmlns:xlink="http://www.w3.org/1999/xlink" viewBox="0 0 400 300"><defs><linearGradient id="linear-gradient" x1="230.54" y1="173.27" x2="216.09" y2="200.66" gradientUnits="userSpaceOnUse"><stop offset="0.01" stop-color="#006837"/><stop offset="1" stop-color="#fff"/></linearGradient><linearGradient id="linear-gradient-2" x1="168.79" y1="204.95" x2="154.34" y2="232.34" xlink:href="#linear-gradient"/><linearGradient id="linear-gradient-3" x1="325.14" y1="181.45" x2="314.03" y2="202.5" xlink:href="#linear-gradient"/></defs><title>201-210</title><g style="isolation:isolate"><g id="Layer_2" data-name="Layer 2"><path d="M50.62,194.42l140,80.65a24.13,24.13,0,0,0,24,.08l138.58-78.68a10.38,10.38,0,0,0,0-18L210.42,96.76a28.18,28.18,0,0,0-28.2.12L50.56,173.72A12,12,0,0,0,50.62,194.42Z" fill="#7d9b3d"/><path d="M271.95,194.17a9.34,9.34,0,0,1-1.67-1.24l-86-36.87-36.65,20.56s77.2,48.24,106.72,60.65l34.63-21A35.14,35.14,0,0,0,271.95,194.17Z" fill="url(#linear-gradient)" style="mix-blend-mode:multiply"/><path d="M118.59,185.67,81.94,206.22s77.2,48.24,106.72,60.65l49.45-30" fill="url(#linear-gradient-2)" style="mix-blend-mode:multiply"/><polygon points="62.05 127.25 108.09 101.98 108.09 23.66 62.05 50.25 62.05 127.25" fill="#68e1fd"/><polygon points="67.37 109.89 102.37 90.67 102.37 34.7 67.37 53.75 67.37 109.89" fill="#fff"/><path d="M74.76,105.7s-1.23-21.23,3-25.1,16.27-9.9,18.59-7,1.91,19.17,1.91,19.17" fill="#ce4a4a"/><path d="M83.35,71.38l.45,5.9a5.26,5.26,0,0,0,4.86-1.77" fill="#edaf00"/><path d="M92.2,62.64c.12.42,1.39,12.33-3.54,12.87s-4.84-8-4.86-10.64S90.87,58.15,92.2,62.64Z" fill="#ffc40c"/><path d="M84.05,56.52l.13-.05C88,55,93.69,54.83,93.93,60.2,94,62.43,91,63.47,91,63.47a7.24,7.24,0,0,1-4.56,1.28c-2.56-.23-1.83,7.55-1.83,7.55a16.15,16.15,0,0,0-.85,5c.14,2.06,5,.37,3.64,4.76s-4.7,1.1-3.65,5.3-.15,5.2-2.15,5.8-4.16-2.22-6.58-3.86c-1-.7-1.26-2.41-1.43-3.53a37.45,37.45,0,0,1-.24-7.1,51,51,0,0,1,2.08-14C76.72,60.88,80.4,57.94,84.05,56.52Z" fill="#c9611b"/><path d="M85.35,69s-.93-2.24-2.39-1.54,0,2.31,1.6,3.16" fill="#ffc40c"/><path d="M220.1,199.7s1.33,3.29.53,6S212.78,217.09,214,218s10.37-3.49,10.91-5.25a25.92,25.92,0,0,0,.47-5.64l1.29,7,2.36-.71-.59-14.7Z" fill="#ff7f2e"/><path d="M238.9,222.19c.47.2.88,6.26.43,8.42s-4,9.22-7.09,11.72-.19-12-.21-12.87.16-7.28.16-7.28S236.63,221.2,238.9,222.19Z" fill="#ff7f2e"/><path d="M242.64,148.82s8.79,30.47,1.76,73.37c0,0-10.81,4.51-19-1.08l1.31-19.38-7.11-.3S207,184.09,208.72,171.28,222.26,146,222.26,146l20.38,2.84" fill="#68e1fd"/><path d="M227.82,117.39s12.66,13.06,14.82,31.43c0,0-9.4,3.71-20.89-2.61h0s-5.89,2.58-11.56,1.15h0s-2.59-5.73-5.3-7h0l13.42-3-1.44-3.87-27.41,2s-5.68-6.3-3-11.45h0l32.26-3.69" fill="#ffb001"/><path d="M214.51,112.13h0s-.43-5.45,6.23-4.71a7.59,7.59,0,0,1,7.17.63,5.94,5.94,0,0,1,2,2.05,17.61,17.61,0,0,0,3.51,1.09c3.64.33,7.54-1.25,10.92-2.28a27.22,27.22,0,0,1,3.44-.83,11.12,11.12,0,0,1,3-.33,7.05,7.05,0,0,1,1,.1,9.59,9.59,0,0,1,6.13,2.51,7.27,7.27,0,0,1-1.46,11.47,13.51,13.51,0,0,1-7.14,1.31,25,25,0,0,1-7.08-1.33,25.89,25.89,0,0,1-11-7.35,8.65,8.65,0,0,1-.92,5c-1.53,2.31-4.79,2.86-4.79,2.86l-10.13-8.56a3.39,3.39,0,0,1-3-3.19S213.63,112.05,214.51,112.13Z" fill="#ee6300"/><path d="M222.07,110.27c2.22.45,3.44,2.56,3.88,5a1.41,1.41,0,0,1,2.19.05,1.94,1.94,0,0,1-.44,2.25,4.55,4.55,0,0,1-1.61,1.15c-.26,3.12-1.55,5.9-3.46,5.94-4.18.08-6.33-9.09-7.46-9.94C214.85,111.69,216.13,109.06,222.07,110.27Z" fill="#ffe1d7"/><path d="M230.3,110.09a1.45,1.45,0,0,1,.79.21c1.44.53,2.39,2.64,2.26,4-.08.8-.55,1.71-1.49,1.6s-1.54-1.09-2-1.74a4.32,4.32,0,0,1-.86-2.41C229,111,229.37,110.11,230.3,110.09Z" fill="#ff7d09"/><path d="M217.23,110.59a2,2,0,0,1,2.65,1.12c1,1.92-.4,3.85,1.47,4.81s3.41,1.24,4.6-1.22-2.65-6.78-5.37-6.46-3.36,1.76-3.36,1.76" fill="#ee6300"/><path d="M226.77,169q-.06-4.8-.17-9.6c0-.77.82-.77.83,0q.38,17,.18,34-.06,4.8-.16,9.6c0,.77-.85.78-.83,0Q227,186,226.77,169Z" fill="#68e1fd"/><path d="M242.36,221.12c.06.66,0,7.09,0,7.09s-2,1.54-1.87,1-1.58-8-1.58-8Z" fill="#ff7f2e"/><path d="M240,233V180.37a20.77,20.77,0,0,0-10.23-17.9l-91.29-53.78a5.11,5.11,0,0,0-7.71,4.4v66l101.65,58.33A5.06,5.06,0,0,0,240,233Z" fill="#f4f4f4"/><path d="M184.33,223.7a10.11,10.11,0,0,1,6.13,3.32c7.73,8.25,16.76,15,25.57,22l22.07-12.14-56-68.72L133,108.85l-18.08,9.89c0,13-.08,26.08.78,39.08l37.42,46.25a10.81,10.81,0,0,1,4.27,1.76,248.9,248.9,0,0,1,22.67,17.3A9.16,9.16,0,0,1,184.33,223.7Z" fill="#f4f4f4"/><path d="M220.48,243.54V190.91A20.77,20.77,0,0,0,210.25,173L119,119.23a5.11,5.11,0,0,0-7.71,4.4v66l101.65,58.33A5.06,5.06,0,0,0,220.48,243.54Z" fill="#d6dad6"/><polygon points="201.52 153.4 193.92 157.8 185.34 152.84 192.91 148.55 201.52 153.4" fill="#323234"/><polyline points="185.34 152.84 185.34 148.52 201.52 149.07 201.52 153.4" fill="#323234"/><polygon points="201.52 149.07 193.92 153.47 185.34 148.52 192.91 144.22 201.52 149.07" fill="#545454"/><ellipse cx="214.59" cy="164.06" rx="9.79" ry="5.15" fill="#323234"/><polyline points="224.38 164.06 224.38 159.83 204.8 159.83 204.8 164.06" fill="#323234"/><ellipse cx="214.59" cy="159.83" rx="9.79" ry="5.15" fill="#545454"/><polygon points="240 183.22 220.48 193.31 111.33 130.37 111.26 168.93 220.51 231.49 240 221.42 240 183.22" fill="#323234"/><polygon points="240 183.22 220.48 193.31 220.51 231.49 240 221.42 240 183.22" fill="#545454"/><polyline points="119.55 151.89 126.78 147.71 154.13 193.79 146.37 198.33" fill="#676768"/><ellipse cx="140.19" cy="170.94" rx="15.72" ry="26.81" transform="translate(-66.69 93) rotate(-30)" fill="#676768"/><ellipse cx="132.96" cy="175.11" rx="15.72" ry="26.81" transform="translate(-69.74 89.94) rotate(-30)" fill="#323234"/><polyline points="111.49 164.57 125.14 157.01 144.31 190.21 130.84 198.09" fill="#545454"/><ellipse cx="132.91" cy="174.72" rx="11.35" ry="19.35" transform="translate(-69.55 89.86) rotate(-30)" fill="#545454"/><ellipse cx="121.17" cy="181.33" rx="11.35" ry="19.35" transform="translate(-74.43 84.88) rotate(-30)" fill="#323234"/><ellipse cx="121.17" cy="181.49" rx="8.28" ry="14.13" transform="translate(-74.51 84.9) rotate(-30)" fill="#a7ecd3"/><ellipse cx="209" cy="179.83" rx="2.15" ry="3.43" transform="translate(-40.55 62.58) rotate(-15.54)" fill="#e84646"/><path d="M275.25,195.27c-12-5.57-20.15-9.07-25.55-11.28,0,.93-.07,1.85-.14,2.77,0,1.4-.11,2.8-.27,4.2,9.6,3.68,23,9.37,30.55,15,1.66,1.24,3.08,2.36,4.27,3.36C291.89,209.36,294.52,204.18,275.25,195.27Z" fill="#ee6300"/><path d="M284.12,209.31a26.32,26.32,0,0,1-13.12-4c-6-3.75-8.8-3.72-11.5-3a20.94,20.94,0,0,1-18.62.1c-5.91-2.84-9.17-8.13-10.28-14.29l-7.29,3.77s.81,16.88,14.11,21.63,17.67-4.9,27-1.81,12.93,8.92,19.85,7.47C290.22,217.88,292,215.93,284.12,209.31Z" fill="#ee6300"/><path d="M289.44,204.59s1.48,7.11-.54,12.2h-5.24l.9-11.5Z" fill="#ee6300"/><path d="M275.25,195.27c-12-5.57-22.82-10.42-28.22-12.62,0,.93.08,2.72,0,3.64,0,1.4.15,2.6,0,4,9.6,3.68,25.29,10.06,32.81,15.67,1.3,1,2.44,1.86,3.45,2.68a6.61,6.61,0,0,1,1,.22,6.48,6.48,0,0,1,1.17.41C292.12,208.71,293.35,203.64,275.25,195.27Z" fill="#a34200"/><path d="M207,141.78c-1.85.08-3.38.14-3.46.12a22.72,22.72,0,0,1-3.1-1c-.68-.28-1.76-1-2.36-.17s.29,1.54,1,1.79l.05,0c-1,.16-2,.35-3,.56s-3.78.63-3.9,1.77c0,.29.42.61.7.66a15.75,15.75,0,0,0,3.69-.39h0l.38,0a6.72,6.72,0,0,0-.19,2.53,1.35,1.35,0,0,0,.76,1.22,3.62,3.62,0,0,0,1.39.3,1.78,1.78,0,0,0,1.94.8.67.67,0,0,0,.32-.16,1.45,1.45,0,0,0,.72.37,2,2,0,0,0,1.62-.23c.43-.38.43-1.11.5-1.67,2.09-.13,4.63.35,5.94-1.72-.59-1.14-1.25-2.24-1.93-3.32C207.76,142.75,207.38,142.27,207,141.78Z" fill="#ffe1d7"/><path d="M210.08,146.55a4.44,4.44,0,0,1-2.33,1.22,6.2,6.2,0,0,1-3.39.23h0a3.83,3.83,0,0,0,0-.54c0-.35-.59-.36-.55,0a3.86,3.86,0,0,1-.19,1.52,2.78,2.78,0,0,1-.25.64c-.21.33-.5.36-.85.38s-.36.58,0,.55a1.45,1.45,0,0,0,1.41-.81,5,5,0,0,0,.38-1.19,6.82,6.82,0,0,0,3.63-.24,5.16,5.16,0,0,0,2.43-1.23C210.24,146.9,210.16,146.72,210.08,146.55Z" fill="#99551d"/><path d="M201.35,146.52q.08,1.51.23,3c0,.36-.52.35-.55,0q-.15-1.51-.23-3C200.77,146.16,201.33,146.16,201.35,146.52Z" fill="#99551d"/><path d="M198.89,145.81,199,149c0,.36-.54.36-.55,0l-.13-3.15C198.32,145.45,198.88,145.45,198.89,145.81Z" fill="#99551d"/><path d="M186,128.67c-2.41.26-4.83.53-7.23.83-2.09.26-4.3.32-6.23,1.2a.79.79,0,0,0-.5.66,1,1,0,0,0,.22,1.06l-.76.19a1,1,0,0,0,.53,1.93l.34-.08-1.08.43c-1.17.49-.66,2.42.53,1.93l.9-.36a.92.92,0,0,0,1.21,1c2.42-.82,4.86-1.55,7.31-2.23-.71,1-1.36,2-2,3a.88.88,0,0,0,.31,1.3.49.49,0,0,0,.58.29,5.54,5.54,0,0,0,3.14-2.66c.42-.68.77-1.38,1.23-2,.17-.16.33-.33.51-.48a.46.46,0,0,0,.13-.19,3.66,3.66,0,0,1,.41-.3,4.53,4.53,0,0,1,.49-.24l2.11-.5A8.88,8.88,0,0,1,186,128.67Z" fill="#ffe1d7"/><path d="M176.61,131.3a39.27,39.27,0,0,0-4.28.59c-.42.08-.24.73.18.64a37.65,37.65,0,0,1,4.1-.57C177,131.93,177,131.26,176.61,131.3Z" fill="#99551d"/><path d="M177.07,133.24q-2.48.32-4.91.87c-.48.11-.24.74.24.63q2.33-.53,4.71-.83C177.6,133.84,177.57,133.17,177.07,133.24Z" fill="#99551d"/><path d="M221.75,146.21a13.42,13.42,0,0,0,6.61-3.05c3-2.62,2.81-11.08,2.81-11.08s1.11,11-.53,13.46-4.87,1.95-5.24,1.84S221.75,146.21,221.75,146.21Z" fill="#d38200"/><path d="M324.46,204.1c5.8-3.68,11.77-7,17.78-10.3l-22.35-9.58L291.72,200s8.25,5.16,19.77,12.12C315.71,209.31,320.18,206.82,324.46,204.1Z" fill="url(#linear-gradient-3)" style="mix-blend-mode:multiply"/><path d="M332.09,170.87c-5.16-.45-10.59-2-14.4-5.53v15.29a15.87,15.87,0,0,0,15.87,15.87h0a15.87,15.87,0,0,0,15.87-15.87V165.07C344,167.28,337.86,171.37,332.09,170.87Z" fill="#68e1fd"/><ellipse cx="333.55" cy="165.23" rx="15.87" ry="8.41" fill="#5ed18d"/><path d="M333.55,166.66s-10.79-1.59-13.64-19C319.91,147.62,329.11,152.7,333.55,166.66Z" fill="#5ed18d"/><path d="M335.14,164.44s-12.38-22.21,0-37.13A62.23,62.23,0,0,1,335.14,164.44Z" fill="#5ed18d"/><path d="M333.55,150.48s-10.79-1.59-13.64-19C319.91,131.44,329.11,136.52,333.55,150.48Z" fill="#5ed18d"/><path d="M334.86,157.59s-2.7-10.56,12.29-19.94C347.16,137.65,346,148.1,334.86,157.59Z" fill="#5ed18d"/><ellipse cx="333.55" cy="165.23" rx="15.87" ry="8.41" fill="#146666"/><path d="M333.55,166.66s-10.79-1.59-13.64-19C319.91,147.62,329.11,152.7,333.55,166.66Z" fill="#5ed18d"/><path d="M335.14,164.44s-12.38-22.21,0-37.13A62.23,62.23,0,0,1,335.14,164.44Z" fill="#5ed18d"/><path d="M333.55,150.48s-10.79-1.59-13.64-19C319.91,131.44,329.11,136.52,333.55,150.48Z" fill="#5ed18d"/><path d="M334.86,157.59s-2.7-10.56,12.29-19.94C347.16,137.65,346,148.1,334.86,157.59Z" fill="#5ed18d"/></g></g></svg>